<?xml version="1.0" encoding="iso-8859-1"?>
<!-- Generator: Adobe Illustrator 16.0.0, SVG Export Plug-In . SVG Version: 6.00 Build 0)  -->
<!DOCTYPE svg PUBLIC "-//W3C//DTD SVG 1.1//EN" "http://www.w3.org/Graphics/SVG/1.1/DTD/svg11.dtd">
<svg version="1.1" id="Capa_1" xmlns="http://www.w3.org/2000/svg" xmlns:xlink="http://www.w3.org/1999/xlink" x="0px" y="0px"
	 width="198.205px" height="198.205px" viewBox="0 0 198.205 198.205" style="enable-background:new 0 0 198.205 198.205;"
	 xml:space="preserve">
<g>
	<g>
		<ellipse cx="99.028" cy="24.372" rx="16.068" ry="15.857"/>
		<path d="M146.937,21.967L126.647,1.678c-2.236-2.236-5.865-2.238-8.102,0c-2.239,2.238-2.239,5.865-0.001,8.103l15.438,15.449
			c0.439,0.441,0.439,1.156,0,1.598l-15.746,15.755c0,0-27.956,0-37.437,0c-1.688,0-3.411,0.35-4.692,1.632L51.27,69.049
			c-1.075,1.075-1.679,2.529-1.679,4.049s0.604,2.977,1.679,4.049l20.424,20.423c1.117,1.119,2.584,1.679,4.051,1.679
			c1.466,0,2.938-0.561,4.056-1.679c0.003-0.002,0.013-0.005,0.013-0.008v92.049c0,4.747,3.837,8.595,8.584,8.595
			c4.746,0,8.583-3.848,8.583-8.595v-64.915h4.112v64.915c0,4.747,3.836,8.595,8.583,8.595c4.746,0,8.583-3.848,8.583-8.595V58.697
			l28.68-28.628C149.175,27.832,149.173,24.205,146.937,21.967z M79.813,89.477c0-0.003-0.01-0.006-0.014-0.009L64.228,73.893
			c-0.44-0.439-0.44-1.155,0-1.596l15.585-15.583V89.477z"/>
	</g>
</g>
<g>
</g>
<g>
</g>
<g>
</g>
<g>
</g>
<g>
</g>
<g>
</g>
<g>
</g>
<g>
</g>
<g>
</g>
<g>
</g>
<g>
</g>
<g>
</g>
<g>
</g>
<g>
</g>
<g>
</g>
</svg>
